{
    "asset" : {
        "generator" : "Khronos glTF Blender I/O v1.7.33",
        "version" : "2.0"
    },
    "scene" : 0,
    "scenes" : [
        {
            "name" : "Scene",
            "nodes" : [
                0,
                1,
                2,
                3,
                4
            ]
        }
    ],
    "nodes" : [
        {
            "mesh" : 0,
            "name" : "basic_part_bottom_new",
            "rotation" : [
                0.7071068286895752,
                0,
                0,
                0.7071067094802856
            ],
            "translation" : [
                0,
                -1.7984600067138672,
                -7.41251802444458
            ]
        },
        {
            "mesh" : 1,
            "name" : "basic_part_mid_lid.002",
            "rotation" : [
                0.7031891345977783,
                -0.07433123141527176,
                0.07433124631643295,
                0.7031890153884888
            ],
            "translation" : [
                0,
                3.691566228866577,
                -7.384226322174072
            ]
        },
        {
            "mesh" : 2,
            "name" : "basic_part_glass_mid",
            "rotation" : [
                0.7071068286895752,
                0,
                0,
                0.7071067094802856
            ],
            "translation" : [
                0,
                3.9331955909729004,
                -7.430875301361084
            ]
        },
        {
            "mesh" : 3,
            "name" : "basic_part_mid_top_lid",
            "rotation" : [
                0.5001043677330017,
                0.49989575147628784,
                -0.4998958110809326,
                0.5001042485237122
            ],
            "scale" : [
                0.9584067463874817,
                1,
                1.0230467319488525
            ],
            "translation" : [
                -0.05011036992073059,
                8.653706550598145,
                -7.449817657470703
            ]
        },
        {
            "mesh" : 4,
            "name" : "basic_top_part-new",
            "rotation" : [
                0.7071068286895752,
                0,
                0,
                0.7071067094802856
            ],
            "translation" : [
                0,
                9.142754554748535,
                -7.368277549743652
            ]
        }
    ],
    "materials" : [
        {
            "doubleSided" : true,
            "name" : "5,5,5",
            "pbrMetallicRoughness" : {
                "baseColorFactor" : [
                    0.01960800029337406,
                    0.01960800029337406,
                    0.01960800029337406,
                    1
                ],
                "metallicFactor" : 0,
                "roughnessFactor" : 0
            }
        },
        {
            "doubleSided" : true,
            "name" : "5,5,5.001",
            "pbrMetallicRoughness" : {
                "baseColorFactor" : [
                    0.01960800029337406,
                    0.01960800029337406,
                    0.01960800029337406,
                    1
                ],
                "metallicFactor" : 0,
                "roughnessFactor" : 0
            }
        },
        {
            "doubleSided" : true,
            "name" : "236,241,239",
            "pbrMetallicRoughness" : {
                "baseColorFactor" : [
                    0.9254900217056274,
                    0.9450979828834534,
                    0.9372550249099731,
                    0.6600000262260437
                ],
                "metallicFactor" : 0,
                "roughnessFactor" : 0
            }
        },
        {
            "doubleSided" : true,
            "name" : "5,5,5.002",
            "pbrMetallicRoughness" : {
                "baseColorFactor" : [
                    0.01960800029337406,
                    0.01960800029337406,
                    0.01960800029337406,
                    1
                ],
                "metallicFactor" : 0,
                "roughnessFactor" : 0
            }
        },
        {
            "doubleSided" : true,
            "name" : "5,5,5.003",
            "pbrMetallicRoughness" : {
                "baseColorFactor" : [
                    0.01960800029337406,
                    0.01960800029337406,
                    0.01960800029337406,
                    1
                ],
                "metallicFactor" : 0,
                "roughnessFactor" : 0
            }
        }
    ],
    "meshes" : [
        {
            "name" : "basic_part_bottom_new",
            "primitives" : [
                {
                    "attributes" : {
                        "POSITION" : 0,
                        "NORMAL" : 1,
                        "TEXCOORD_0" : 2
                    },
                    "indices" : 3,
                    "material" : 0
                }
            ]
        },
        {
            "name" : "basic_part_mid_lid.002",
            "primitives" : [
                {
                    "attributes" : {
                        "POSITION" : 4,
                        "NORMAL" : 5,
                        "TEXCOORD_0" : 6
                    },
                    "indices" : 7,
                    "material" : 1
                }
            ]
        },
        {
            "name" : "basic_part_glass_mid",
            "primitives" : [
                {
                    "attributes" : {
                        "POSITION" : 8,
                        "NORMAL" : 9,
                        "TEXCOORD_0" : 10
                    },
                    "indices" : 11,
                    "material" : 2
                }
            ]
        },
        {
            "name" : "basic_part_mid_top_lid",
            "primitives" : [
                {
                    "attributes" : {
                        "POSITION" : 12,
                        "NORMAL" : 13,
                        "TEXCOORD_0" : 14
                    },
                    "indices" : 15,
                    "material" : 3
                }
            ]
        },
        {
            "name" : "basic_top_part-new",
            "primitives" : [
                {
                    "attributes" : {
                        "POSITION" : 16,
                        "NORMAL" : 17,
                        "TEXCOORD_0" : 18
                    },
                    "indices" : 19,
                    "material" : 4
                }
            ]
        }
    ],
    "accessors" : [
        {
            "bufferView" : 0,
            "componentType" : 5126,
            "count" : 7195,
            "max" : [
                3.75,
                3.75,
                0
            ],
            "min" : [
                -3.75,
                -3.75,
                -5.5
            ],
            "type" : "VEC3"
        },
        {
            "bufferView" : 1,
            "componentType" : 5126,
            "count" : 7195,
            "type" : "VEC3"
        },
        {
            "bufferView" : 2,
            "componentType" : 5126,
            "count" : 7195,
            "type" : "VEC2"
        },
        {
            "bufferView" : 3,
            "componentType" : 5123,
            "count" : 23718,
            "type" : "SCALAR"
        },
        {
            "bufferView" : 4,
            "componentType" : 5126,
            "count" : 2590,
            "max" : [
                3.7499990463256836,
                3.75,
                0.3125
            ],
            "min" : [
                -3.7499990463256836,
                -3.75,
                -5.612500190734863
            ],
            "type" : "VEC3"
        },
        {
            "bufferView" : 5,
            "componentType" : 5126,
            "count" : 2590,
            "type" : "VEC3"
        },
        {
            "bufferView" : 6,
            "componentType" : 5126,
            "count" : 2590,
            "type" : "VEC2"
        },
        {
            "bufferView" : 7,
            "componentType" : 5123,
            "count" : 6672,
            "type" : "SCALAR"
        },
        {
            "bufferView" : 8,
            "componentType" : 5126,
            "count" : 2373,
            "max" : [
                3.75,
                3.7499990463256836,
                0
            ],
            "min" : [
                -3.75,
                -3.75,
                -5.25
            ],
            "type" : "VEC3"
        },
        {
            "bufferView" : 9,
            "componentType" : 5126,
            "count" : 2373,
            "type" : "VEC3"
        },
        {
            "bufferView" : 10,
            "componentType" : 5126,
            "count" : 2373,
            "type" : "VEC2"
        },
        {
            "bufferView" : 11,
            "componentType" : 5123,
            "count" : 5328,
            "type" : "SCALAR"
        },
        {
            "bufferView" : 12,
            "componentType" : 5126,
            "count" : 1408,
            "max" : [
                3.7499990463256836,
                3.75,
                0
            ],
            "min" : [
                -3.75,
                -3.7499990463256836,
                -0.625
            ],
            "type" : "VEC3"
        },
        {
            "bufferView" : 13,
            "componentType" : 5126,
            "count" : 1408,
            "type" : "VEC3"
        },
        {
            "bufferView" : 14,
            "componentType" : 5126,
            "count" : 1408,
            "type" : "VEC2"
        },
        {
            "bufferView" : 15,
            "componentType" : 5123,
            "count" : 3756,
            "type" : "SCALAR"
        },
        {
            "bufferView" : 16,
            "componentType" : 5126,
            "count" : 10767,
            "max" : [
                3.749398946762085,
                3.7498440742492676,
                0
            ],
            "min" : [
                -3.75,
                -3.7498440742492676,
                -2.5625
            ],
            "type" : "VEC3"
        },
        {
            "bufferView" : 17,
            "componentType" : 5126,
            "count" : 10767,
            "type" : "VEC3"
        },
        {
            "bufferView" : 18,
            "componentType" : 5126,
            "count" : 10767,
            "type" : "VEC2"
        },
        {
            "bufferView" : 19,
            "componentType" : 5123,
            "count" : 37836,
            "type" : "SCALAR"
        }
    ],
    "bufferViews" : [
        {
            "buffer" : 0,
            "byteLength" : 86340,
            "byteOffset" : 0
        },
        {
            "buffer" : 0,
            "byteLength" : 86340,
            "byteOffset" : 86340
        },
        {
            "buffer" : 0,
            "byteLength" : 57560,
            "byteOffset" : 172680
        },
        {
            "buffer" : 0,
            "byteLength" : 47436,
            "byteOffset" : 230240
        },
        {
            "buffer" : 0,
            "byteLength" : 31080,
            "byteOffset" : 277676
        },
        {
            "buffer" : 0,
            "byteLength" : 31080,
            "byteOffset" : 308756
        },
        {
            "buffer" : 0,
            "byteLength" : 20720,
            "byteOffset" : 339836
        },
        {
            "buffer" : 0,
            "byteLength" : 13344,
            "byteOffset" : 360556
        },
        {
            "buffer" : 0,
            "byteLength" : 28476,
            "byteOffset" : 373900
        },
        {
            "buffer" : 0,
            "byteLength" : 28476,
            "byteOffset" : 402376
        },
        {
            "buffer" : 0,
            "byteLength" : 18984,
            "byteOffset" : 430852
        },
        {
            "buffer" : 0,
            "byteLength" : 10656,
            "byteOffset" : 449836
        },
        {
            "buffer" : 0,
            "byteLength" : 16896,
            "byteOffset" : 460492
        },
        {
            "buffer" : 0,
            "byteLength" : 16896,
            "byteOffset" : 477388
        },
        {
            "buffer" : 0,
            "byteLength" : 11264,
            "byteOffset" : 494284
        },
        {
            "buffer" : 0,
            "byteLength" : 7512,
            "byteOffset" : 505548
        },
        {
            "buffer" : 0,
            "byteLength" : 129204,
            "byteOffset" : 513060
        },
        {
            "buffer" : 0,
            "byteLength" : 129204,
            "byteOffset" : 642264
        },
        {
            "buffer" : 0,
            "byteLength" : 86136,
            "byteOffset" : 771468
        },
        {
            "buffer" : 0,
            "byteLength" : 75672,
            "byteOffset" : 857604
        }
    ],
    "buffers" : [
        {
            "byteLength" : 933276,
            "uri" : "pad-model-ar.bin"
        }
    ]
}
